# xmcd
#
# Track frame offsets: 
#        150
#        12762
#        26637
#        36712
#        47420
#        60507
#        75087
#        87150
#        98260
#        108195
#        118630
#        129210
#        141942
#        153397
#        166015
#        178082
#        188880
#
# Disc length: 2686 seconds
#
# Revision: 0
# Processed by: cddbd v1.4PL0 Copyright (c) Steve Scherf et al.
# Submitted via: ExactAudioCopy v0.95a3
#
DISCID=c30a7c11
DTITLE=Jimmy Reed - Blues Masters: The Very Best Of
DYEAR=2000
DGENRE=Blues
TTITLE0=High And Lonesome
TTITLE1=You Don't Have To Go
TTITLE2=Ain't That Lovin' You Baby
TTITLE3=I Ain't Got You
TTITLE4=You've Got Me Dizzy
TTITLE5=Little Rain
TTITLE6=Honest I Do
TTITLE7=Odds And Ends
TTITLE8=Ends And Odds
TTITLE9=Going To New York
TTITLE10=Take Out Some Insurance
TTITLE11=Baby What You Want Me To Do
TTITLE12=Hush Hush
TTITLE13=Big Boss Man
TTITLE14=Bright Lights, Big City
TTITLE15=Oh John
TTITLE16=Shame Shame Shame
EXTD=
EXTT0=
EXTT1=
EXTT2=
EXTT3=
EXTT4=
EXTT5=
EXTT6=
EXTT7=
EXTT8=
EXTT9=
EXTT10=
EXTT11=
EXTT12=
EXTT13=
EXTT14=
EXTT15=
EXTT16=
PLAYORDER=
